<svg xmlns="http://www.w3.org/2000/svg" viewBox="0 0 366 200" width="366" height="200">
<defs><linearGradient id="g" x1="0" y1="0" x2="1" y2="1"><stop offset="0" stop-color="#c62f32"/><stop offset="1" stop-color="#ef5a5c"/></linearGradient></defs>
<rect width="366" height="200" fill="url(#g)"/>
<circle cx="290" cy="100" r="80" fill="#fff" fill-opacity=".18"/>
<g transform="translate(172 -5) scale(.48)"><path d="M122 215 C62 212 62 308 122 305 M378 215 C438 212 438 308 378 305" fill="none" stroke="#9a8f84" stroke-width="6" stroke-linecap="round"/><path d="M120 200 Q250 176 380 200 L380 315 Q250 345 120 315 Z" fill="#ffffff" stroke="#9a8f84" stroke-width="3"/><path d="M123 236 Q250 216 377 236" stroke="#9a8f84" stroke-opacity=".45" stroke-width="2" fill="none"/><path d="M123 263 Q250 243 377 263" stroke="#9a8f84" stroke-opacity=".45" stroke-width="2" fill="none"/><path d="M123 290 Q250 270 377 290" stroke="#9a8f84" stroke-opacity=".45" stroke-width="2" fill="none"/><path d="M205 197 Q250 190 295 197" stroke="#c9c9c9" stroke-width="5" fill="none" stroke-linecap="round"/><text x="360" y="306" text-anchor="end" font-family="Roboto,Arial,sans-serif" font-size="16" font-weight="700" fill="#9a8f84" fill-opacity=".7" letter-spacing="2">JULI</text></g>
<text x="22" y="62" font-family="Roboto,Arial,sans-serif" font-size="17" font-weight="700" fill="#ffffff" fill-opacity=".85">KF94 CHÍNH HÃNG</text>
<text x="22" y="104" font-family="Roboto,Arial,sans-serif" font-size="30" font-weight="700" fill="#ffffff">Mua 2 tặng 1</text>
<rect x="22" y="128" width="104" height="32" rx="4" fill="#fff"/>
<text x="74" y="149" text-anchor="middle" font-family="Roboto,Arial,sans-serif" font-size="14" font-weight="700" fill="#c62f32">MUA NGAY</text>
</svg>